<svg width="37" height="16" viewBox="0 0 37 16" fill="none" xmlns="http://www.w3.org/2000/svg">
<path d="M0.36 8.76V7.48L7.24 3.496V4.824L1.56 8.04V8.168L7.24 11.384V12.744L0.36 8.76ZM13.7618 13.192C12.3964 13.192 11.3778 12.696 10.7057 11.704C10.0444 10.712 9.71375 9.28267 9.71375 7.416C9.71375 5.54933 10.0444 4.12 10.7057 3.128C11.3778 2.136 12.3964 1.64 13.7618 1.64C14.2738 1.64 14.7164 1.70933 15.0898 1.848C15.4631 1.98667 15.7831 2.17333 16.0498 2.408C16.3164 2.64267 16.5404 2.90933 16.7218 3.208C16.9031 3.496 17.0631 3.78933 17.2018 4.088L16.0498 4.616C15.9538 4.37067 15.8418 4.14133 15.7138 3.928C15.5858 3.704 15.4311 3.512 15.2498 3.352C15.0791 3.18133 14.8711 3.048 14.6258 2.952C14.3911 2.856 14.1031 2.808 13.7618 2.808C12.8764 2.808 12.2151 3.144 11.7778 3.816C11.3511 4.488 11.1378 5.384 11.1378 6.504V8.328C11.1378 9.448 11.3511 10.344 11.7778 11.016C12.2151 11.688 12.8764 12.024 13.7618 12.024C14.1031 12.024 14.3911 11.976 14.6258 11.88C14.8711 11.784 15.0791 11.656 15.2498 11.496C15.4311 11.3253 15.5858 11.1333 15.7138 10.92C15.8418 10.696 15.9538 10.4613 16.0498 10.216L17.2018 10.744C17.0631 11.0533 16.9031 11.352 16.7218 11.64C16.5404 11.928 16.3164 12.1893 16.0498 12.424C15.7831 12.6587 15.4631 12.8453 15.0898 12.984C14.7164 13.1227 14.2738 13.192 13.7618 13.192ZM19.6275 15.208L25.1955 0.839999H26.3475L20.7795 15.208H19.6275ZM29.1413 11.416L34.8213 8.2V8.072L29.1413 4.856V3.496L36.0213 7.48V8.76L29.1413 12.744V11.416Z" fill="#12F7D6"/>
</svg>
